<svg xmlns="http://www.w3.org/2000/svg" xml:space="preserve" style="enable-background:new 0 0 256 256" viewBox="0 0 256 256"><style>.st3{fill:#d93940}</style><g id="Moldura"><linearGradient id="XMLID_00000102514960245744332120000008201345088063002809_" x1="221.467" x2="34.533" y1="-21.579" y2="277.579" gradientUnits="userSpaceOnUse"><stop offset="0" style="stop-color:#1066b1"/><stop offset="1" style="stop-color:#7c3b97"/></linearGradient><path id="XMLID_2_" d="M0 0h256v256H0z" style="fill:url(#XMLID_00000102514960245744332120000008201345088063002809_)"/><path d="M230.8 15.5H25.2c-5.3 0-9.7 4.3-9.7 9.7v205.6c0 5.3 4.3 9.7 9.7 9.7h205.6c5.3 0 9.7-4.3 9.7-9.7V25.2c0-5.4-4.3-9.7-9.7-9.7z" style="fill:#fff"/></g><g id="Layer_8"><path d="M215.7 112.2c3.9-5 2.7-11.8-2.7-15.1l-7.1-4.4-15.7-8.6c-2.8-1.6-6.4-2.1-9.9-1.6l.2-14.9-.6-10c-.4-6.3-5.8-10.6-12-9.5l-8.2 1.4-17.5 3.9c-3.4.8-6.7 3-9 6l-11.7-11.2-7.8-6.3c-4.9-4-11.7-2.9-15.2 2.4l-4.5 7-8.9 15.5c-1.5 2.6-2.1 5.7-1.9 8.9l-17.8.6-9.9 1.1c-6.3.7-10.3 6.3-8.9 12.5l1.8 8.1 4.8 17.3c.7 2.7 2.5 5.3 4.7 7.3l-11.2 11.6-6.4 7.7c-4 4.9-3 11.7 2.3 15.2l7 4.6 15.4 9.1c2.8 1.7 6.5 2.3 10 1.9l.1 15.8.8 9.9c.6 6.3 6.1 10.4 12.3 9.2l8.1-1.6 17.4-4.4c3.2-.8 6.2-2.9 8.4-5.7l12.5 11.8 7.8 6.3c4.9 4 11.7 2.9 15.1-2.4l4.5-7 9-15.5c1.7-3 2.3-6.7 1.8-10.3l17.8-.4 9.9-1c6.3-.6 10.4-6.2 9-12.4l-1.5-8-4.5-17.3c-.7-2.8-2.5-5.5-4.9-7.6l10.9-12 6.2-7.9zm-88.2 42.7c-14.9 0-27.1-11.9-27.1-26.5s12.1-26.5 27.1-26.5 27.1 11.9 27.1 26.5-12.1 26.5-27.1 26.5z" style="fill:#f19234"/><path d="M111.9 96.6c4-2.3 8.8-3.7 13.9-3.7h1.6c-.1-1.8-.2-3.6-.2-5.5l-26.8-26-6.1 10.1c-1.8 3-1.2 7.5 1.4 10 0 0 8.5 8.1 9.4 8.9.6.6 4.6 4.1 6.8 6.2zM103.7 56.2l-.8 1.4 24.5 24.2c.1-3.9.4-7.5.8-10.9l-16.5-15.6c-2.5-2.6-6.2-2.2-8 .9zM140.2 95c4.5 1.2 8.8 3.6 12.4 7.2.4.4.7.8 1.1 1.2 1.2-1.3 2.5-2.7 3.8-4L157 62l-11.5 2.8c-3.4.8-6.1 4.5-6 8.1 0 0 .2 11.8.3 12.9 0 .9.3 6.1.4 9.2zM163.1 60.7l-1.6.4.2 34.4c2.8-2.7 5.6-5.1 8.2-7.1l-.5-22.7c-.1-3.6-2.9-5.9-6.3-5zM160.6 112.4c2.5 3.9 3.9 8.6 4.1 13.8v1.6c1.8-.1 3.6-.2 5.5-.4l25.3-27.5-10.3-5.8c-3.1-1.7-7.5-1-9.9 1.7 0 0-7.9 8.7-8.7 9.6-.6.6-4 4.6-6 7zM200.8 103.1l-1.4-.8-23.5 25.1c3.9 0 7.5.2 10.9.5l15.3-16.8c2.3-2.6 1.7-6.3-1.3-8zM162.5 139.5c-1.2 4.5-3.6 8.8-7.2 12.4-.4.4-.8.7-1.2 1.1 1.3 1.2 2.6 2.5 4 3.8l37.3-.4-2.8-11.5c-.8-3.4-4.5-6.2-8-6.1 0 0-11.8.2-12.9.2-.9.1-6.2.3-9.2.5zM196.7 162.4l-.4-1.6-34.4.1c2.7 2.8 5 5.6 7.1 8.3l22.7-.4c3.6-.1 5.8-3 5-6.4zM144.1 160c-3.9 2.4-8.7 3.9-13.8 4h-1.6c.1 1.8.2 3.6.3 5.5l27.3 25.5 5.9-10.3c1.8-3.1 1-7.5-1.6-9.9 0 0-8.7-8-9.5-8.8-.6-.6-4.6-4-7-6zM153.2 200.2l.8-1.4-25-23.7c0 3.9-.2 7.5-.6 10.9l16.7 15.4c2.7 2.3 6.3 1.9 8.1-1.2zM115.2 161.8c-4.4-1.3-8.7-3.8-12.3-7.5-.4-.4-.7-.8-1.1-1.2-1.2 1.3-2.5 2.6-3.8 3.9l-.3 37.3 11.5-2.6c3.4-.8 6.2-4.3 6.2-7.9v-12.9c.1-.8-.1-6.1-.2-9.1zM91.7 195.6l1.6-.4.5-34.4c-2.9 2.6-5.7 4.9-8.4 6.9v22.7c0 3.7 2.8 6 6.3 5.2zM94.7 143.6c-2.3-4-3.6-8.8-3.5-13.9 0-.6 0-1.1.1-1.6-1.8.1-3.6.1-5.5.1l-26.3 26.5 10.1 6.2c3 1.9 7.5 1.3 10-1.3 0 0 8.3-8.4 9-9.2.5-.7 4-4.5 6.1-6.8zM54.2 151.3l1.4.9L80.1 128c-3.9-.2-7.5-.5-10.9-.9l-15.9 16.2c-2.5 2.5-2 6.2.9 8zM93 117.4c1.3-4.5 3.7-8.8 7.4-12.3.4-.4.8-.7 1.2-1.1-1.3-1.2-2.6-2.5-4-3.8H60.3l2.7 11.5c.8 3.4 4.4 6.2 8 6.2 0 0 11.8-.1 12.9-.1.7-.1 6-.3 9.1-.4zM59 94.1l.4 1.6 34.4.3c-2.6-2.8-5-5.7-7-8.3l-22.7.2c-3.6 0-5.9 2.8-5.1 6.2z" class="st3"/></g></svg>